<svg xmlns="http://www.w3.org/2000/svg" viewBox="0 0 280 70" width="280" height="70" fill="none">
  <!-- Red Box Logo Mark with K and skyline -->
  <rect x="2" y="2" width="66" height="66" rx="8" fill="#E32819" />
  <rect x="2" y="2" width="66" height="66" rx="8" stroke="#FFFFFF" stroke-opacity="0.2" stroke-width="2" />
  
  <!-- Skyline / Industrial silhoutte inside icon -->
  <path d="M12 50 L12 40 L18 40 L18 32 L24 32 L24 44 L30 44 L30 24 L38 24 L38 36 L46 36 L46 28 L52 28 L52 50 Z" fill="#FFFFFF" fill-opacity="0.25"/>
  <rect x="18" y="20" width="3" height="30" fill="#FFFFFF" fill-opacity="0.4"/>
  <polygon points="19,16 16,20 22,20" fill="#FFFFFF" fill-opacity="0.4"/>
  
  <!-- Letter K bold -->
  <path d="M22 18 L29 18 L29 32 L44 18 L52 18 L36 34 L54 52 L45 52 L30 37 L29 38 L29 52 L22 52 Z" fill="#FFFFFF" />
  
  <!-- Brand text -->
  <text x="80" y="34" font-family="system-ui, -apple-system, sans-serif" font-weight="900" font-size="22" letter-spacing="1.5" fill="#FFFFFF">KAIZEN</text>
  <text x="80" y="52" font-family="system-ui, -apple-system, sans-serif" font-weight="700" font-size="12" letter-spacing="3" fill="#E32819">INGENIERÍA</text>
</svg>